<?xml version="1.0" encoding="us-ascii" standalone="no"?><svg xmlns="http://www.w3.org/2000/svg" xmlns:xlink="http://www.w3.org/1999/xlink" contentStyleType="text/css" height="818px" preserveAspectRatio="none" style="width:902px;height:818px;background:#FFFFFF;" version="1.1" viewBox="0 0 902 818" width="902px" zoomAndPan="magnify"><defs/><g><!--cluster Interface Formateur - Suivi de Projet et Comp?tences--><g id="cluster_Interface Formateur - Suivi de Projet et Comp&#233;tences"><rect fill="none" height="805" rx="2.5" ry="2.5" style="stroke:#181818;stroke-width:1.0;" width="777" x="119" y="7"/><text fill="#000000" font-family="sans-serif" font-size="14" font-weight="bold" lengthAdjust="spacing" textLength="375" x="320" y="23.5332">Interface Formateur - Suivi de Projet et Comp&#233;tences</text></g><g id="elem_UC1"><ellipse cx="274.8945" cy="336.1789" fill="#F1F1F1" rx="116.3945" ry="25.6789" style="stroke:#181818;stroke-width:0.5;"/><text fill="#000000" font-family="sans-serif" font-size="14" lengthAdjust="spacing" textLength="197" x="176.3945" y="339.9074">Acc&#233;der au tableau des projets</text></g><g id="elem_UC2"><ellipse cx="275.1395" cy="420.1279" fill="#F1F1F1" rx="103.6395" ry="23.1279" style="stroke:#181818;stroke-width:0.5;"/><text fill="#000000" font-family="sans-serif" font-size="14" lengthAdjust="spacing" textLength="169" x="190.6395" y="423.8564">Consulter l'&#233;tat des projets</text></g><g id="elem_UC3"><ellipse cx="275.2402" cy="249.048" fill="#F1F1F1" rx="118.2402" ry="26.048" style="stroke:#181818;stroke-width:0.5;"/><text fill="#000000" font-family="sans-serif" font-size="14" lengthAdjust="spacing" textLength="201" x="174.7402" y="252.7766">Suivre l'avancement des projets</text></g><g id="elem_UC4"><ellipse cx="705.2217" cy="248.9443" fill="#F1F1F1" rx="175.2217" ry="37.4443" style="stroke:#181818;stroke-width:0.5;"/><text fill="#000000" font-family="sans-serif" font-size="14" lengthAdjust="spacing" textLength="321" x="544.7217" y="252.6729">Consulter le tableau de l'&#233;tat de chaque apprenant</text></g><g id="elem_UC5"><ellipse cx="275.1384" cy="506.1277" fill="#F1F1F1" rx="126.1384" ry="27.6277" style="stroke:#181818;stroke-width:0.5;"/><text fill="#000000" font-family="sans-serif" font-size="14" lengthAdjust="spacing" textLength="218" x="166.1384" y="509.8562">Suivre les progr&#232;s des apprenants</text></g><g id="elem_UC6"><ellipse cx="275.2025" cy="69.1405" fill="#F1F1F1" rx="118.7025" ry="26.1405" style="stroke:#181818;stroke-width:0.5;"/><text fill="#000000" font-family="sans-serif" font-size="14" lengthAdjust="spacing" textLength="202" x="174.2025" y="72.869">G&#233;rer les notes et comp&#233;tences</text></g><g id="elem_UC7"><ellipse cx="275.2025" cy="595.1405" fill="#F1F1F1" rx="118.7025" ry="26.1405" style="stroke:#181818;stroke-width:0.5;"/><text fill="#000000" font-family="sans-serif" font-size="14" lengthAdjust="spacing" textLength="202" x="174.2025" y="598.869">Donner des feedbacks r&#233;guliers</text></g><g id="elem_UC8"><ellipse cx="274.79" cy="159.158" fill="#F1F1F1" rx="131.29" ry="28.658" style="stroke:#181818;stroke-width:0.5;"/><text fill="#000000" font-family="sans-serif" font-size="14" lengthAdjust="spacing" textLength="229" x="160.29" y="162.8865">Recevoir des rappels et notifications</text></g><g id="elem_UC9"><ellipse cx="274.7783" cy="764.8557" fill="#F1F1F1" rx="139.7783" ry="30.3557" style="stroke:#181818;stroke-width:0.5;"/><text fill="#000000" font-family="sans-serif" font-size="14" lengthAdjust="spacing" textLength="247" x="151.2783" y="768.5842">Consulter le tableau de bord personnel</text></g><g id="elem_UC10"><ellipse cx="275.0702" cy="678.114" fill="#F1F1F1" rx="96.0702" ry="21.614" style="stroke:#181818;stroke-width:0.5;"/><text fill="#000000" font-family="sans-serif" font-size="14" lengthAdjust="spacing" textLength="152" x="199.0702" y="681.8426">Travailler sur les projets</text></g><!--entity Formateur--><g id="elem_Formateur"><ellipse cx="39" cy="305.5" fill="#F1F1F1" rx="8" ry="8" style="stroke:#181818;stroke-width:0.5;"/><path d="M39,313.5 L39,340.5 M26,321.5 L52,321.5 M39,340.5 L26,355.5 M39,340.5 L52,355.5 " fill="none" style="stroke:#181818;stroke-width:0.5;"/><text fill="#000000" font-family="sans-serif" font-size="14" lengthAdjust="spacing" textLength="66" x="6" y="371.5332">Formateur</text></g><!--entity Apprenant--><g id="elem_Apprenant"><ellipse cx="39" cy="647.5" fill="#F1F1F1" rx="8" ry="8" style="stroke:#181818;stroke-width:0.5;"/><path d="M39,655.5 L39,682.5 M26,663.5 L52,663.5 M39,682.5 L26,697.5 M39,682.5 L52,697.5 " fill="none" style="stroke:#181818;stroke-width:0.5;"/><text fill="#000000" font-family="sans-serif" font-size="14" lengthAdjust="spacing" textLength="66" x="6" y="713.5332">Apprenant</text></g><!--link Formateur to UC1--><g id="link_Formateur_UC1"><path d="M72.05,336 C94.7,336 120.58,336 152.32,336 " fill="none" id="Formateur-to-UC1" style="stroke:#181818;stroke-width:1.0;"/><polygon fill="#181818" points="158.32,336,149.32,332,153.32,336,149.32,340,158.32,336" style="stroke:#181818;stroke-width:1.0;"/></g><!--link Formateur to UC2--><g id="link_Formateur_UC2"><path d="M72.15,358.26 C83.96,365.67 97.7,373.45 111,379 C137.66,390.13 162.24,397.4035 189.52,403.8335 " fill="none" id="Formateur-to-UC2" style="stroke:#181818;stroke-width:1.0;"/><polygon fill="#181818" points="195.36,405.21,187.5177,399.2519,190.4934,404.0629,185.6824,407.0386,195.36,405.21" style="stroke:#181818;stroke-width:1.0;"/></g><!--link Formateur to UC3--><g id="link_Formateur_UC3"><path d="M72.2,313.87 C84.02,306.47 97.75,298.67 111,293 C135.79,282.4 158.0164,275.2525 183.7464,268.5025 " fill="none" id="Formateur-to-UC3" style="stroke:#181818;stroke-width:1.0;"/><polygon fill="#181818" points="189.55,266.98,179.8296,265.3947,184.7137,268.2488,181.8596,273.1329,189.55,266.98" style="stroke:#181818;stroke-width:1.0;"/></g><!--link Formateur to UC5--><g id="link_Formateur_UC5"><path d="M53.3,375.26 C64.56,402.79 83.33,438.4 111,460 C128.61,473.75 144.4151,481.5941 165.9651,488.3541 " fill="none" id="Formateur-to-UC5" style="stroke:#181818;stroke-width:1.0;"/><polygon fill="#181818" points="171.69,490.15,164.2998,483.6396,166.9192,488.6535,161.9054,491.2728,171.69,490.15" style="stroke:#181818;stroke-width:1.0;"/></g><!--link Formateur to UC6--><g id="link_Formateur_UC6"><path d="M41.5,296.63 C45.55,246.83 60.05,161.72 111,113 C127.1,97.6 142.2786,89.245 163.7186,82.605 " fill="none" id="Formateur-to-UC6" style="stroke:#181818;stroke-width:1.0;"/><polygon fill="#181818" points="169.45,80.83,159.6695,79.6716,164.6738,82.3092,162.0362,87.3135,169.45,80.83" style="stroke:#181818;stroke-width:1.0;"/></g><!--link Formateur to UC7--><g id="link_Formateur_UC7"><path d="M42.05,375.24 C46.72,423.45 61.89,504.53 111,551 C127.18,566.31 142.3876,574.6382 163.8376,581.2682 " fill="none" id="Formateur-to-UC7" style="stroke:#181818;stroke-width:1.0;"/><polygon fill="#181818" points="169.57,583.04,162.1526,576.5606,164.793,581.5635,159.7902,584.2039,169.57,583.04" style="stroke:#181818;stroke-width:1.0;"/></g><!--link Formateur to UC8--><g id="link_Formateur_UC8"><path d="M51.84,296.99 C62.69,267.61 81.61,228.51 111,205 C127.53,191.78 141.9607,184.2256 162.3507,177.5156 " fill="none" id="Formateur-to-UC8" style="stroke:#181818;stroke-width:1.0;"/><polygon fill="#181818" points="168.05,175.64,158.2506,174.6538,163.3006,177.203,160.7514,182.2529,168.05,175.64" style="stroke:#181818;stroke-width:1.0;"/></g><!--link Apprenant to UC9--><g id="link_Apprenant_UC9"><path d="M72.14,697.58 C84.07,704.32 97.89,711.54 111,717 C133.74,726.46 153.2371,733.156 176.9371,740.176 " fill="none" id="Apprenant-to-UC9" style="stroke:#181818;stroke-width:1.0;"/><polygon fill="#181818" points="182.69,741.88,175.1966,735.4887,177.8959,740.46,172.9246,743.1592,182.69,741.88" style="stroke:#181818;stroke-width:1.0;"/></g><!--link Apprenant to UC10--><g id="link_Apprenant_UC10"><path d="M72.05,678 C99.65,678 134.93,678 172.99,678 " fill="none" id="Apprenant-to-UC10" style="stroke:#181818;stroke-width:1.0;"/><polygon fill="#181818" points="178.99,678,169.99,674,173.99,678,169.99,682,178.99,678" style="stroke:#181818;stroke-width:1.0;"/></g><!--link Apprenant to UC7--><g id="link_Apprenant_UC7"><path d="M72.08,658.26 C83.99,651.5 97.82,644.31 111,639 C136.28,628.81 158.9065,621.743 184.8565,614.933 " fill="none" id="Apprenant-to-UC7" style="stroke:#181818;stroke-width:1.0;"/><polygon fill="#181818" points="190.66,613.41,180.9394,611.8255,185.8238,614.6792,182.9701,619.5635,190.66,613.41" style="stroke:#181818;stroke-width:1.0;"/></g><!--reverse link UC3 to UC4--><g id="link_UC3_UC4"><path d="M399.24,249 C441.43,249 483.99,249 529.99,249 " fill="none" id="UC3-backto-UC4" style="stroke:#181818;stroke-width:1.0;stroke-dasharray:7.0,7.0;"/><polygon fill="#181818" points="393.24,249,402.24,253,398.24,249,402.24,245,393.24,249" style="stroke:#181818;stroke-width:1.0;"/><text fill="#000000" font-family="sans-serif" font-size="13" lengthAdjust="spacing" textLength="53" x="446" y="245.4951">&#171;extend&#187;</text></g><!--SRC=[ZPBTIiD048Nlzoa6RxngiMfjArAGYkAT-FC0syqqhcvtu-nk4SJtCS-H5tEI9dKb5OIGaCDySmupOt0L83WWdJy7o3IX2jfP8QGAZk3QqLe6ZDJ-NnO5ePKs255NIfiRX8DR6v1MKk5FFGpW8UgDXWpXZjmB1k1duTP5LGQq2lq1V0Y0w559ppqkbQhA30baX22N1lcReOUYWRbQUdXQZ59auQoFXgt1779N6VO0nobG9oBaQhcH766DTXzoyeS79haIHr3FyYqYo6uqRPlJVSvRivogBzyuxw3EV9nIDrL9ZRC7wmA_UOJgrmWRvYnbhforpDJDLuZPKgfN3rILUJGQgKCcANAF2ZTERo7YI6WQA_RKAwraVH0TEFtFS9QECYZOhSvYMdAMae_4Az36CEeZTND95tqaFeL8pcamhrNeISVGBplfAUEUSjPJ9Zrbohrt5zzgC-X9ewE-Dc6KRm26STWaWdEukC1ttbisdujl]--></g></svg>